<svg width="48" height="48" viewBox="0 0 48 48" fill="none" xmlns="http://www.w3.org/2000/svg">
<path d="M7.76504 13.8062C7.64062 13.7993 7.52357 13.7446 7.43801 13.6536C7.35244 13.5626 7.30485 13.442 7.30505 13.3168V13.3168C7.30505 11.8746 6.73488 10.4914 5.71999 9.47164C4.70509 8.45184 3.32859 7.87892 1.89331 7.87892C1.76869 7.87912 1.64873 7.8313 1.55813 7.74532C1.46753 7.65934 1.41317 7.54173 1.40625 7.4167C1.40625 7.35243 1.41885 7.28879 1.44333 7.22941C1.4678 7.17004 1.50368 7.11608 1.54891 7.07064C1.59413 7.02519 1.64783 6.98914 1.70692 6.96455C1.76601 6.93995 1.82935 6.92729 1.89331 6.92729C3.32859 6.92729 4.70509 6.35438 5.71999 5.33457C6.73488 4.31477 7.30505 2.93163 7.30505 1.48941C7.30485 1.36419 7.35244 1.24365 7.43801 1.15261C7.52357 1.06157 7.64062 1.00696 7.76504 1V1C7.82901 1 7.89234 1.01266 7.95143 1.03725C8.01053 1.06185 8.06422 1.0979 8.10945 1.14334C8.15467 1.18879 8.19055 1.24274 8.21503 1.30212C8.2395 1.3615 8.2521 1.42514 8.2521 1.48941V1.48941C8.2521 2.93163 8.82227 4.31477 9.83716 5.33457C10.8521 6.35438 12.2286 6.92729 13.6638 6.92729C13.7278 6.92729 13.7911 6.93995 13.8502 6.96455C13.9093 6.98914 13.963 7.02519 14.0082 7.07064C14.0535 7.11608 14.0893 7.17004 14.1138 7.22941C14.1383 7.28879 14.1509 7.35243 14.1509 7.4167C14.144 7.54173 14.0896 7.65934 13.999 7.74532C13.9084 7.8313 13.7885 7.87912 13.6638 7.87892V7.87892C12.2286 7.87892 10.8521 8.45184 9.83716 9.47164C8.82227 10.4914 8.2521 11.8746 8.2521 13.3168C8.2521 13.4466 8.20079 13.5711 8.10945 13.6629C8.0181 13.7547 7.89422 13.8062 7.76504 13.8062V13.8062Z" fill="#50E6FF"/>
<path d="M41.8836 46.9534C41.7832 46.9534 41.6868 46.9133 41.6158 46.8419C41.5447 46.7705 41.5048 46.6737 41.5048 46.5727C41.5048 45.4118 41.0458 44.2983 40.2288 43.4774C39.4118 42.6564 38.3038 42.1952 37.1484 42.1952C37.0479 42.1952 36.9515 42.1551 36.8805 42.0837C36.8094 42.0124 36.7695 41.9155 36.7695 41.8146C36.7695 41.7136 36.8094 41.6168 36.8805 41.5454C36.9515 41.474 37.0479 41.4339 37.1484 41.4339C38.3038 41.4339 39.4118 40.9727 40.2288 40.1518C41.0458 39.3309 41.5048 38.2174 41.5048 37.0564C41.5048 36.9555 41.5447 36.8587 41.6158 36.7873C41.6868 36.7159 41.7832 36.6758 41.8836 36.6758C41.9841 36.6758 42.0804 36.7159 42.1515 36.7873C42.2225 36.8587 42.2624 36.9555 42.2624 37.0564C42.2624 38.2174 42.7214 39.3309 43.5384 40.1518C44.3554 40.9727 45.4635 41.4339 46.6189 41.4339C46.7194 41.4339 46.8157 41.474 46.8868 41.5454C46.9578 41.6168 46.9977 41.7136 46.9977 41.8146C46.9977 41.9155 46.9578 42.0124 46.8868 42.0837C46.8157 42.1551 46.7194 42.1952 46.6189 42.1952C46.0468 42.1952 45.4803 42.3085 44.9518 42.5285C44.4232 42.7484 43.943 43.0709 43.5384 43.4774C43.1339 43.8839 42.813 44.3664 42.5941 44.8975C42.3751 45.4286 42.2624 45.9979 42.2624 46.5727C42.2624 46.6737 42.2225 46.7705 42.1515 46.8419C42.0804 46.9133 41.9841 46.9534 41.8836 46.9534Z" fill="#50E6FF"/>
<path d="M40.2352 20.037C41.0013 23.2481 40.8024 26.6153 39.6639 29.7129C38.5253 32.8104 36.4981 35.4991 33.8387 37.4389C31.1792 39.3787 28.0071 40.4824 24.7233 40.6105C21.4396 40.7386 18.1918 39.8852 15.3907 38.1585C12.5897 36.4317 10.3612 33.909 8.98705 30.9094C7.61293 27.9099 7.15493 24.5682 7.67099 21.3071C8.18704 18.046 9.65396 15.0119 11.8862 12.5886C14.1185 10.1653 17.0158 8.46157 20.2118 7.69297C24.496 6.66263 29.0121 7.3842 32.7671 9.69902C36.522 12.0138 39.2082 15.7324 40.2352 20.037V20.037Z" fill="url(#paint0_radial_589_7123)"/>
<path d="M15.0938 35.1504C15.6766 35.1504 16.2536 35.0351 16.792 34.811C17.3304 34.5869 17.8196 34.2585 18.2317 33.8444C18.6438 33.4303 18.9707 32.9388 19.1937 32.3978C19.4167 31.8568 19.5315 31.2769 19.5315 30.6914C19.5315 30.1058 19.4167 29.5259 19.1937 28.9849C18.9707 28.444 18.6438 27.9524 18.2317 27.5383C17.8196 27.1243 17.3304 26.7958 16.792 26.5717C16.2536 26.3476 15.6766 26.2323 15.0938 26.2323C15.1073 26.1058 15.1073 25.9782 15.0938 25.8516C15.0797 24.6687 14.6039 23.5387 13.7689 22.7048C12.9339 21.8708 11.8064 21.3996 10.6291 21.3926H7.30093C7.07299 23.4698 7.22894 25.5715 7.76093 27.5918C8.43856 30.4109 9.81637 33.0115 11.7656 35.1504H15.0938Z" fill="#F2F2F2"/>
<path d="M40.2329 20.7416C39.6917 17.832 38.3729 15.1251 36.4177 12.9111C36.1657 12.8012 35.9026 12.7191 35.633 12.6664C34.933 12.4613 34.1961 12.4167 33.4767 12.536C32.7573 12.6552 32.0738 12.9353 31.4764 13.3554C30.8791 13.7755 30.3833 14.3251 30.0256 14.9635C29.6678 15.6019 29.4573 16.3128 29.4095 17.0439H28.8412C27.7312 17.0447 26.6572 17.4397 25.8089 18.1589C24.9605 18.8781 24.3923 19.8754 24.2046 20.9747C24.0168 22.074 24.2217 23.2046 24.7829 24.1668C25.3441 25.1291 26.2256 25.8612 27.2718 26.2339C27.7405 26.4054 28.2343 26.4973 28.733 26.5058H34.1447C36.3951 24.8346 38.4389 22.8995 40.2329 20.7416V20.7416Z" fill="#F2F2F2"/>
<path d="M46.1591 9.88774C44.4544 7.1688 40.4768 5.94528 34.9298 6.76096C33.0625 7.04511 31.2178 7.46308 29.4098 8.01167C30.8751 8.51238 32.2674 9.20731 33.5498 10.0781L35.498 9.67023C36.4828 9.51532 37.4777 9.43353 38.4745 9.42552C41.1803 9.42552 43.0203 10.1053 43.8862 11.4103C44.9144 13.1505 44.0486 16.1141 41.505 19.5672C37.9388 23.9716 33.5784 27.6613 28.6522 30.4429C23.7529 33.5296 18.3184 35.6604 12.6334 36.7237C8.41225 37.3491 5.38167 36.7237 4.35344 34.9836C3.32521 33.2435 4.19109 30.2798 6.73461 26.8267C7.05931 26.4189 7.14049 26.2014 7.49225 25.7664C7.30278 24.2952 7.30278 22.8056 7.49225 21.3345C6.36429 22.4989 5.33264 23.7538 4.40756 25.0866C1.05228 29.6001 0.132287 33.6241 1.83698 36.479C2.73341 37.6873 3.93036 38.6374 5.30769 39.2339C6.68503 39.8305 8.19429 40.0525 9.68401 39.8777C10.8529 39.8819 12.0203 39.791 13.1746 39.6058C19.1453 38.5209 24.8566 36.3065 30.0051 33.0803C35.2651 30.0559 39.9102 26.0618 43.6968 21.3073C46.9438 16.7939 47.8638 12.7426 46.1591 9.88774Z" fill="#50E6FF"/>
<defs>
<radialGradient id="paint0_radial_589_7123" cx="0" cy="0" r="1" gradientUnits="userSpaceOnUse" gradientTransform="translate(23.0443 23.5346) scale(16.7439 16.663)">
<stop offset="0.18" stop-color="#5EA0EF"/>
<stop offset="1" stop-color="#0078D4"/>
</radialGradient>
</defs>
</svg>
